{
  "accessors": [
    {
      "bufferView": 2,
      "componentType": 5126,
      "count": 47063,
      "max": [
        1.271809458732605,
        4.24247932434082,
        0.6736693978309631
      ],
      "min": [
        -1.271541714668274,
        -0.027240514755249023,
        -0.6742487549781799
      ],
      "type": "VEC3"
    },
    {
      "bufferView": 2,
      "byteOffset": 564756,
      "componentType": 5126,
      "count": 47063,
      "max": [
        1.0,
        1.0,
        0.9999988079071045
      ],
      "min": [
        -1.0,
        -0.9999982714653015,
        -1.0
      ],
      "type": "VEC3"
    },
    {
      "bufferView": 1,
      "componentType": 5126,
      "count": 47063,
      "max": [
        0.9980404376983643,
        0.8008749485015869
      ],
      "min": [
        0.02971162647008896,
        0.05369796231389046
      ],
      "type": "VEC2"
    },
    {
      "bufferView": 1,
      "byteOffset": 376504,
      "componentType": 5126,
      "count": 47063,
      "max": [
        0.9980404376983643,
        0.8008749485015869
      ],
      "min": [
        0.02971162647008896,
        0.05369796231389046
      ],
      "type": "VEC2"
    },
    {
      "bufferView": 1,
      "byteOffset": 753008,
      "componentType": 5126,
      "count": 47063,
      "max": [
        0.9980404376983643,
        0.8008749485015869
      ],
      "min": [
        0.02971162647008896,
        0.05369796231389046
      ],
      "type": "VEC2"
    },
    {
      "bufferView": 0,
      "componentType": 5125,
      "count": 275328,
      "type": "SCALAR"
    }
  ],
  "asset": {
    "extras": {
      "author": "CGpub (https://sketchfab.com/CGpub)",
      "license": "CC-BY-4.0 (http://creativecommons.org/licenses/by/4.0/)",
      "source": "https://sketchfab.com/3d-models/cats-food-pack-2a76bbc0c45e44fab26f4e5eccbebfe1",
      "title": "Cat's Food Pack"
    },
    "generator": "Sketchfab-14.25.0",
    "version": "2.0"
  },
  "bufferViews": [
    {
      "buffer": 0,
      "byteLength": 1101312,
      "name": "floatBufferViews",
      "target": 34963
    },
    {
      "buffer": 0,
      "byteLength": 1129512,
      "byteOffset": 1101312,
      "byteStride": 8,
      "name": "floatBufferViews",
      "target": 34962
    },
    {
      "buffer": 0,
      "byteLength": 1129512,
      "byteOffset": 2230824,
      "byteStride": 12,
      "name": "floatBufferViews",
      "target": 34962
    }
  ],
  "buffers": [
    {
      "byteLength": 3360336,
      "uri": "scene.bin"
    }
  ],
  "images": [
    {
      "uri": "textures/Pack_baseColor.jpeg"
    },
    {
      "uri": "textures/Pack_metallicRoughness.png"
    }
  ],
  "materials": [
    {
      "doubleSided": true,
      "name": "Pack",
      "pbrMetallicRoughness": {
        "baseColorTexture": {
          "index": 0
        },
        "metallicFactor": 0.3,
        "metallicRoughnessTexture": {
          "index": 1
        },
        "roughnessFactor": 0.5
      }
    }
  ],
  "meshes": [
    {
      "name": "Object_0",
      "primitives": [
        {
          "attributes": {
            "NORMAL": 1,
            "POSITION": 0,
            "TEXCOORD_0": 2,
            "TEXCOORD_1": 3,
            "TEXCOORD_2": 4
          },
          "indices": 5,
          "material": 0,
          "mode": 4
        }
      ]
    }
  ],
  "nodes": [
    {
      "children": [
        1
      ],
      "matrix": [
        1.0,
        0.0,
        0.0,
        0.0,
        0.0,
        2.220446049250313e-16,
        -1.0,
        0.0,
        0.0,
        1.0,
        2.220446049250313e-16,
        0.0,
        0.0,
        0.0,
        0.0,
        1.0
      ],
      "name": "Sketchfab_model"
    },
    {
      "children": [
        2
      ],
      "name": "root"
    },
    {
      "children": [
        3
      ],
      "matrix": [
        1.0,
        0.0,
        0.0,
        0.0,
        0.0,
        2.220446049250313e-16,
        1.0,
        0.0,
        0.0,
        -1.0,
        2.220446049250313e-16,
        0.0,
        0.0,
        0.0,
        0.0,
        1.0
      ],
      "name": "GLTF_SceneRootNode"
    },
    {
      "children": [
        4
      ],
      "name": "Pack_0"
    },
    {
      "mesh": 0,
      "name": "Object_4"
    }
  ],
  "samplers": [
    {
      "magFilter": 9729,
      "minFilter": 9987,
      "wrapS": 10497,
      "wrapT": 10497
    }
  ],
  "scene": 0,
  "scenes": [
    {
      "name": "Sketchfab_Scene",
      "nodes": [
        0
      ]
    }
  ],
  "textures": [
    {
      "sampler": 0,
      "source": 0
    },
    {
      "sampler": 0,
      "source": 1
    }
  ]
}
