{
  "accessors": [
    {
      "bufferView": 2,
      "componentType": 5126,
      "count": 21021,
      "max": [
        1.011139154434204,
        0.20657691359519958,
        -3.5317771434783936
      ],
      "min": [
        -0.05271872505545616,
        -0.22207272052764893,
        -5.119836330413818
      ],
      "type": "VEC3"
    },
    {
      "bufferView": 2,
      "byteOffset": 252252,
      "componentType": 5126,
      "count": 21021,
      "max": [
        1.0,
        1.0,
        1.0
      ],
      "min": [
        -1.0,
        -1.0,
        -1.0
      ],
      "type": "VEC3"
    },
    {
      "bufferView": 1,
      "componentType": 5126,
      "count": 21021,
      "max": [
        0.9999535083770752,
        1.0000001192092896
      ],
      "min": [
        4.666143286158331e-05,
        0.0106297442689538
      ],
      "type": "VEC2"
    },
    {
      "bufferView": 0,
      "componentType": 5125,
      "count": 108288,
      "type": "SCALAR"
    },
    {
      "bufferView": 2,
      "byteOffset": 504504,
      "componentType": 5126,
      "count": 18496,
      "max": [
        0.9559457302093506,
        0.2084115892648697,
        -3.6334428787231445
      ],
      "min": [
        -0.03737959265708923,
        -0.2166055142879486,
        -5.10449743270874
      ],
      "type": "VEC3"
    },
    {
      "bufferView": 2,
      "byteOffset": 726456,
      "componentType": 5126,
      "count": 18496,
      "max": [
        0.5717105865478516,
        0.9999024868011475,
        0.5712549090385437
      ],
      "min": [
        -0.5708592534065247,
        -0.9999929666519165,
        -0.5714448690414429
      ],
      "type": "VEC3"
    },
    {
      "bufferView": 1,
      "byteOffset": 168168,
      "componentType": 5126,
      "count": 18496,
      "max": [
        1.0000001192092896,
        1.0000001192092896
      ],
      "min": [
        5.960465188081798e-08,
        0.04667847603559494
      ],
      "type": "VEC2"
    },
    {
      "bufferView": 0,
      "byteOffset": 433152,
      "componentType": 5125,
      "count": 29952,
      "type": "SCALAR"
    },
    {
      "bufferView": 2,
      "byteOffset": 948408,
      "componentType": 5126,
      "count": 3055,
      "max": [
        1.2453019618988037,
        0.209453746676445,
        -0.06574249267578125
      ],
      "min": [
        -1.2453017234802246,
        -0.2327147126197815,
        -5.1784348487854
      ],
      "type": "VEC3"
    },
    {
      "bufferView": 2,
      "byteOffset": 985068,
      "componentType": 5126,
      "count": 3055,
      "max": [
        1.0,
        1.0,
        1.0
      ],
      "min": [
        -1.0,
        -1.0,
        -1.0
      ],
      "type": "VEC3"
    },
    {
      "bufferView": 1,
      "byteOffset": 316136,
      "componentType": 5126,
      "count": 3055,
      "max": [
        1.0000001192092896,
        1.0
      ],
      "min": [
        0.0,
        0.0
      ],
      "type": "VEC2"
    },
    {
      "bufferView": 0,
      "byteOffset": 552960,
      "componentType": 5125,
      "count": 11457,
      "type": "SCALAR"
    },
    {
      "bufferView": 2,
      "byteOffset": 1021728,
      "componentType": 5126,
      "count": 130,
      "max": [
        0.5686389803886414,
        -0.1939098834991455,
        -4.44254207611084
      ],
      "min": [
        0.436032235622406,
        -0.21552324295043945,
        -4.64688777923584
      ],
      "type": "VEC3"
    },
    {
      "bufferView": 2,
      "byteOffset": 1023288,
      "componentType": 5126,
      "count": 130,
      "max": [
        0.9984269142150879,
        1.0,
        0.9984276294708252
      ],
      "min": [
        -0.9984269142150879,
        -1.0,
        -0.9984276294708252
      ],
      "type": "VEC3"
    },
    {
      "bufferView": 1,
      "byteOffset": 340576,
      "componentType": 5126,
      "count": 130,
      "max": [
        0.875,
        0.9576272368431091
      ],
      "min": [
        0.125,
        0.0
      ],
      "type": "VEC2"
    },
    {
      "bufferView": 0,
      "byteOffset": 598788,
      "componentType": 5125,
      "count": 372,
      "type": "SCALAR"
    },
    {
      "bufferView": 2,
      "byteOffset": 1024848,
      "componentType": 5126,
      "count": 2831,
      "max": [
        1.3110443353652954,
        0.20260648429393768,
        -0.0
      ],
      "min": [
        -1.3110443353652954,
        -0.20260953903198242,
        -5.244177341461182
      ],
      "type": "VEC3"
    },
    {
      "bufferView": 2,
      "byteOffset": 1058820,
      "componentType": 5126,
      "count": 2831,
      "max": [
        1.0,
        0.9999998211860657,
        1.0
      ],
      "min": [
        -1.0,
        -0.9999997615814209,
        -1.0
      ],
      "type": "VEC3"
    },
    {
      "bufferView": 1,
      "byteOffset": 341616,
      "componentType": 5126,
      "count": 2831,
      "max": [
        0.875,
        1.0
      ],
      "min": [
        0.125,
        0.0
      ],
      "type": "VEC2"
    },
    {
      "bufferView": 0,
      "byteOffset": 600276,
      "componentType": 5125,
      "count": 9525,
      "type": "SCALAR"
    },
    {
      "bufferView": 2,
      "byteOffset": 1092792,
      "componentType": 5126,
      "count": 110,
      "max": [
        1.2131623029708862,
        0.19969715178012848,
        -0.09729290008544922
      ],
      "min": [
        -1.211700677871704,
        0.19969521462917328,
        -5.152190208435059
      ],
      "type": "VEC3"
    },
    {
      "bufferView": 2,
      "byteOffset": 1094112,
      "componentType": 5126,
      "count": 110,
      "max": [
        8.06113860107871e-07,
        1.0,
        -2.403707011211509e-09
      ],
      "min": [
        8.06113860107871e-07,
        1.0,
        -2.403707011211509e-09
      ],
      "type": "VEC3"
    },
    {
      "bufferView": 1,
      "byteOffset": 364264,
      "componentType": 5126,
      "count": 110,
      "max": [
        0.8685628175735474,
        0.7555198669433594
      ],
      "min": [
        0.6302277445793152,
        0.35685205459594727
      ],
      "type": "VEC2"
    },
    {
      "bufferView": 0,
      "byteOffset": 638376,
      "componentType": 5125,
      "count": 324,
      "type": "SCALAR"
    },
    {
      "bufferView": 2,
      "byteOffset": 1095432,
      "componentType": 5126,
      "count": 1934,
      "max": [
        0.8670493364334106,
        0.19956639409065247,
        -0.0065555572509765625
      ],
      "min": [
        -0.6932633519172668,
        -0.07783268392086029,
        -5.1784348487854
      ],
      "type": "VEC3"
    },
    {
      "bufferView": 2,
      "byteOffset": 1118640,
      "componentType": 5126,
      "count": 1934,
      "max": [
        1.0,
        1.0,
        1.0
      ],
      "min": [
        -0.9999999403953552,
        -0.9990147948265076,
        -0.999239444732666
      ],
      "type": "VEC3"
    },
    {
      "bufferView": 1,
      "byteOffset": 365144,
      "componentType": 5126,
      "count": 1934,
      "max": [
        0.753381609916687,
        0.9411342144012451
      ],
      "min": [
        0.45197704434394836,
        0.4813922941684723
      ],
      "type": "VEC2"
    },
    {
      "bufferView": 0,
      "byteOffset": 639672,
      "componentType": 5125,
      "count": 5628,
      "type": "SCALAR"
    },
    {
      "bufferView": 2,
      "byteOffset": 1141848,
      "componentType": 5126,
      "count": 437,
      "max": [
        1.332534670829773,
        0.10100891441106796,
        -2.9477314949035645
      ],
      "min": [
        -1.3380675315856934,
        -0.0004949569702148438,
        -3.6958460807800293
      ],
      "type": "VEC3"
    },
    {
      "bufferView": 2,
      "byteOffset": 1147092,
      "componentType": 5126,
      "count": 437,
      "max": [
        1.0,
        1.0,
        1.0
      ],
      "min": [
        -1.0,
        -1.0,
        -1.0
      ],
      "type": "VEC3"
    },
    {
      "bufferView": 1,
      "byteOffset": 380616,
      "componentType": 5126,
      "count": 437,
      "max": [
        0.5623186230659485,
        0.606146514415741
      ],
      "min": [
        0.4996962249279022,
        0.1405240148305893
      ],
      "type": "VEC2"
    },
    {
      "bufferView": 0,
      "byteOffset": 662184,
      "componentType": 5125,
      "count": 1314,
      "type": "SCALAR"
    }
  ],
  "asset": {
    "extras": {
      "author": "Alain Sorazu (https://sketchfab.com/alainsorazu)",
      "license": "CC-BY-SA-4.0 (http://creativecommons.org/licenses/by-sa/4.0/)",
      "source": "https://sketchfab.com/3d-models/mobile-phone-4a97a633ad584ba19110e1730f7744c1",
      "title": "Mobile phone"
    },
    "generator": "Sketchfab-13.25.0",
    "version": "2.0"
  },
  "bufferViews": [
    {
      "buffer": 0,
      "byteLength": 667440,
      "name": "floatBufferViews",
      "target": 34963
    },
    {
      "buffer": 0,
      "byteLength": 384112,
      "byteOffset": 667440,
      "byteStride": 8,
      "name": "floatBufferViews",
      "target": 34962
    },
    {
      "buffer": 0,
      "byteLength": 1152336,
      "byteOffset": 1051552,
      "byteStride": 12,
      "name": "floatBufferViews",
      "target": 34962
    }
  ],
  "buffers": [
    {
      "byteLength": 2203888,
      "uri": "scene.bin"
    }
  ],
  "materials": [
    {
      "doubleSided": true,
      "name": "White",
      "pbrMetallicRoughness": {
        "baseColorFactor": [
          0.269736,
          0.269736,
          0.269736,
          1.0
        ],
        "metallicFactor": 0.6,
        "roughnessFactor": 0.4
      }
    },
    {
      "doubleSided": true,
      "name": "Camera.001",
      "pbrMetallicRoughness": {
        "baseColorFactor": [
          0.537211,
          0.537211,
          0.537211,
          1.0
        ],
        "roughnessFactor": 0.05
      }
    },
    {
      "doubleSided": true,
      "name": "Camera.002",
      "pbrMetallicRoughness": {
        "baseColorFactor": [
          0.0928533,
          0.0928533,
          0.0928533,
          1.0
        ],
        "roughnessFactor": 0.0
      }
    },
    {
      "doubleSided": true,
      "name": "Flash",
      "pbrMetallicRoughness": {
        "baseColorFactor": [
          0.598395,
          0.598395,
          0.598395,
          1.0
        ],
        "roughnessFactor": 0.05
      }
    },
    {
      "doubleSided": true,
      "name": "Case",
      "pbrMetallicRoughness": {
        "baseColorFactor": [
          0.0,
          0.0,
          0.0,
          1.0
        ],
        "metallicFactor": 0.0,
        "roughnessFactor": 0.4
      }
    },
    {
      "doubleSided": true,
      "name": "Screen",
      "pbrMetallicRoughness": {
        "baseColorFactor": [
          0.133616,
          0.133616,
          0.133616,
          1.0
        ],
        "roughnessFactor": 0.05
      }
    },
    {
      "doubleSided": true,
      "name": "Black",
      "pbrMetallicRoughness": {
        "baseColorFactor": [
          0.0,
          0.0,
          0.0,
          1.0
        ],
        "metallicFactor": 0.0,
        "roughnessFactor": 0.5
      }
    },
    {
      "doubleSided": true,
      "name": "Button",
      "pbrMetallicRoughness": {
        "baseColorFactor": [
          0.0,
          0.0,
          0.0,
          1.0
        ],
        "metallicFactor": 0.0,
        "roughnessFactor": 0.3
      }
    }
  ],
  "meshes": [
    {
      "name": "Object_0",
      "primitives": [
        {
          "attributes": {
            "NORMAL": 1,
            "POSITION": 0,
            "TEXCOORD_0": 2
          },
          "indices": 3,
          "material": 0,
          "mode": 4
        }
      ]
    },
    {
      "name": "Object_1",
      "primitives": [
        {
          "attributes": {
            "NORMAL": 5,
            "POSITION": 4,
            "TEXCOORD_0": 6
          },
          "indices": 7,
          "material": 1,
          "mode": 4
        }
      ]
    },
    {
      "name": "Object_2",
      "primitives": [
        {
          "attributes": {
            "NORMAL": 9,
            "POSITION": 8,
            "TEXCOORD_0": 10
          },
          "indices": 11,
          "material": 2,
          "mode": 4
        }
      ]
    },
    {
      "name": "Object_3",
      "primitives": [
        {
          "attributes": {
            "NORMAL": 13,
            "POSITION": 12,
            "TEXCOORD_0": 14
          },
          "indices": 15,
          "material": 3,
          "mode": 4
        }
      ]
    },
    {
      "name": "Object_4",
      "primitives": [
        {
          "attributes": {
            "NORMAL": 17,
            "POSITION": 16,
            "TEXCOORD_0": 18
          },
          "indices": 19,
          "material": 4,
          "mode": 4
        }
      ]
    },
    {
      "name": "Object_5",
      "primitives": [
        {
          "attributes": {
            "NORMAL": 21,
            "POSITION": 20,
            "TEXCOORD_0": 22
          },
          "indices": 23,
          "material": 5,
          "mode": 4
        }
      ]
    },
    {
      "name": "Object_6",
      "primitives": [
        {
          "attributes": {
            "NORMAL": 25,
            "POSITION": 24,
            "TEXCOORD_0": 26
          },
          "indices": 27,
          "material": 6,
          "mode": 4
        }
      ]
    },
    {
      "name": "Object_7",
      "primitives": [
        {
          "attributes": {
            "NORMAL": 29,
            "POSITION": 28,
            "TEXCOORD_0": 30
          },
          "indices": 31,
          "material": 7,
          "mode": 4
        }
      ]
    }
  ],
  "nodes": [
    {
      "children": [
        1
      ],
      "matrix": [
        0.0476190485060215,
        0.0,
        0.0,
        0.0,
        0.0,
        1.0573552812425446e-17,
        -0.0476190485060215,
        0.0,
        0.0,
        0.0476190485060215,
        1.0573552812425446e-17,
        0.0,
        0.0,
        0.0,
        0.0,
        1.0
      ],
      "name": "Sketchfab_model"
    },
    {
      "children": [
        2
      ],
      "name": "root"
    },
    {
      "children": [
        3
      ],
      "matrix": [
        1.0,
        0.0,
        0.0,
        0.0,
        0.0,
        2.220446049250313e-16,
        1.0,
        0.0,
        0.0,
        -1.0,
        2.220446049250313e-16,
        0.0,
        0.0,
        0.0,
        0.0,
        1.0
      ],
      "name": "GLTF_SceneRootNode"
    },
    {
      "children": [
        4,
        5,
        6,
        7,
        8,
        9,
        10,
        11
      ],
      "matrix": [
        0.7627506852149963,
        0.0,
        0.0,
        0.0,
        0.0,
        -8.320907355240846e-08,
        0.4935663938522269,
        0.0,
        0.0,
        -0.7627506852149855,
        -1.2859015252810314e-07,
        0.0,
        0.0,
        0.0,
        0.0,
        1.0
      ],
      "name": "Phone_0"
    },
    {
      "mesh": 0,
      "name": "Object_4"
    },
    {
      "mesh": 1,
      "name": "Object_5"
    },
    {
      "mesh": 2,
      "name": "Object_6"
    },
    {
      "mesh": 3,
      "name": "Object_7"
    },
    {
      "mesh": 4,
      "name": "Object_8"
    },
    {
      "mesh": 5,
      "name": "Object_9"
    },
    {
      "mesh": 6,
      "name": "Object_10"
    },
    {
      "mesh": 7,
      "name": "Object_11"
    }
  ],
  "scene": 0,
  "scenes": [
    {
      "name": "Sketchfab_Scene",
      "nodes": [
        0
      ]
    }
  ]
}
