{
  "accessors": [
    {
      "bufferView": 2,
      "componentType": 5126,
      "count": 5841,
      "max": [
        92.50001525878906,
        37.5,
        7.999998092651367
      ],
      "min": [
        -92.50000762939453,
        -37.500003814697266,
        3.35803562734327e-08
      ],
      "type": "VEC3"
    },
    {
      "bufferView": 2,
      "byteOffset": 70092,
      "componentType": 5126,
      "count": 5841,
      "max": [
        0.9998502135276794,
        1.0,
        1.0
      ],
      "min": [
        -0.9998482465744019,
        -1.0,
        -1.0
      ],
      "type": "VEC3"
    },
    {
      "bufferView": 1,
      "componentType": 5126,
      "count": 5841,
      "max": [
        0.9970410466194153,
        0.6995094418525696
      ],
      "min": [
        0.0029589429032057524,
        0.0031272664200514555
      ],
      "type": "VEC2"
    },
    {
      "bufferView": 1,
      "byteOffset": 46728,
      "componentType": 5126,
      "count": 5841,
      "max": [
        0.9970410466194153,
        0.6995094418525696
      ],
      "min": [
        0.0029589429032057524,
        0.0031272664200514555
      ],
      "type": "VEC2"
    },
    {
      "bufferView": 0,
      "componentType": 5125,
      "count": 34140,
      "type": "SCALAR"
    }
  ],
  "asset": {
    "extras": {
      "author": "Ahmed.Ben.Jbara (https://sketchfab.com/Ahmed.Ben.Jbara)",
      "license": "CC-BY-4.0 (http://creativecommons.org/licenses/by/4.0/)",
      "source": "https://sketchfab.com/3d-models/chocolate-milka-4609b7ec6ee54715bb1e576352f361b0",
      "title": "Chocolate Milka"
    },
    "generator": "Sketchfab-16.8.0",
    "version": "2.0"
  },
  "bufferViews": [
    {
      "buffer": 0,
      "byteLength": 136560,
      "name": "floatBufferViews",
      "target": 34963
    },
    {
      "buffer": 0,
      "byteLength": 93456,
      "byteOffset": 136560,
      "byteStride": 8,
      "name": "floatBufferViews",
      "target": 34962
    },
    {
      "buffer": 0,
      "byteLength": 140184,
      "byteOffset": 230016,
      "byteStride": 12,
      "name": "floatBufferViews",
      "target": 34962
    }
  ],
  "buffers": [
    {
      "byteLength": 370200,
      "uri": "scene.bin"
    }
  ],
  "images": [
    {
      "uri": "textures/Mat-325141325-CASINO-CHOCOLATE_MILKA-paint_b_baseColor.png"
    }
  ],
  "materials": [
    {
      "doubleSided": true,
      "name": "Mat-325141325-CASINO-CHOCOLATE_MILKA-paint_b",
      "pbrMetallicRoughness": {
        "baseColorTexture": {
          "index": 0
        },
        "metallicFactor": 0.0,
        "roughnessFactor": 0.6
      }
    }
  ],
  "meshes": [
    {
      "name": "Milka-CHOCOLATE_Mat-325141325-CASINO-CHOCOLATE_MILKA-paint_b_0",
      "primitives": [
        {
          "attributes": {
            "NORMAL": 1,
            "POSITION": 0,
            "TEXCOORD_0": 2,
            "TEXCOORD_1": 3
          },
          "indices": 4,
          "material": 0,
          "mode": 4
        }
      ]
    }
  ],
  "nodes": [
    {
      "children": [
        1
      ],
      "matrix": [
        1.0,
        0.0,
        0.0,
        0.0,
        0.0,
        2.220446049250313e-16,
        -1.0,
        0.0,
        0.0,
        1.0,
        2.220446049250313e-16,
        0.0,
        0.0,
        0.0,
        0.0,
        1.0
      ],
      "name": "Sketchfab_model"
    },
    {
      "children": [
        2
      ],
      "matrix": [
        0.0010000000474974513,
        0.0,
        0.0,
        0.0,
        0.0,
        0.0,
        0.0010000000474974513,
        0.0,
        0.0,
        -0.0010000000474974513,
        0.0,
        0.0,
        0.0,
        0.0,
        0.0,
        1.0
      ],
      "name": "Milka_Chocolate.fbx"
    },
    {
      "children": [
        3
      ],
      "name": "RootNode"
    },
    {
      "children": [
        4
      ],
      "matrix": [
        1.0,
        0.0,
        0.0,
        0.0,
        0.0,
        2.220446049250313e-16,
        -1.0,
        0.0,
        0.0,
        1.0,
        2.220446049250313e-16,
        0.0,
        0.0,
        0.0,
        0.0,
        1.0
      ],
      "name": "Milka-CHOCOLATE"
    },
    {
      "mesh": 0,
      "name": "Milka-CHOCOLATE_Mat-325141325-CASINO-CHOCOLATE_MILKA-paint_b_0"
    }
  ],
  "samplers": [
    {
      "magFilter": 9729,
      "minFilter": 9987,
      "wrapS": 10497,
      "wrapT": 10497
    }
  ],
  "scene": 0,
  "scenes": [
    {
      "name": "Sketchfab_Scene",
      "nodes": [
        0
      ]
    }
  ],
  "textures": [
    {
      "sampler": 0,
      "source": 0
    }
  ]
}
