{
  "accessors": [
    {
      "bufferView": 2,
      "componentType": 5126,
      "count": 864,
      "max": [
        1.0,
        1.0,
        1.0
      ],
      "min": [
        -1.0,
        -1.0,
        -1.0
      ],
      "type": "VEC3"
    },
    {
      "bufferView": 2,
      "byteOffset": 10368,
      "componentType": 5126,
      "count": 864,
      "max": [
        1.0,
        1.0,
        1.0
      ],
      "min": [
        -1.0,
        -1.0,
        -1.0
      ],
      "type": "VEC3"
    },
    {
      "bufferView": 1,
      "componentType": 5126,
      "count": 864,
      "max": [
        0.9991728067398071,
        0.99997478723526
      ],
      "min": [
        0.00010958791244775057,
        0.0006146380328573287
      ],
      "type": "VEC2"
    },
    {
      "bufferView": 0,
      "componentType": 5125,
      "count": 1284,
      "type": "SCALAR"
    }
  ],
  "asset": {
    "extras": {
      "author": "byamazaky (https://sketchfab.com/byamazaky)",
      "license": "CC-BY-4.0 (http://creativecommons.org/licenses/by/4.0/)",
      "source": "https://sketchfab.com/3d-models/nestle-fitness-chocolate-cereal-box-30c8afe30c384649b51439f09d107d2d",
      "title": "Nestlé Fitness Chocolate Cereal Box"
    },
    "generator": "Sketchfab-13.97.0",
    "version": "2.0"
  },
  "bufferViews": [
    {
      "buffer": 0,
      "byteLength": 5136,
      "name": "floatBufferViews",
      "target": 34963
    },
    {
      "buffer": 0,
      "byteLength": 6912,
      "byteOffset": 5136,
      "byteStride": 8,
      "name": "floatBufferViews",
      "target": 34962
    },
    {
      "buffer": 0,
      "byteLength": 20736,
      "byteOffset": 12048,
      "byteStride": 12,
      "name": "floatBufferViews",
      "target": 34962
    }
  ],
  "buffers": [
    {
      "byteLength": 32784,
      "uri": "scene.bin"
    }
  ],
  "images": [
    {
      "uri": "textures/CAIXA_baseColor.jpeg"
    }
  ],
  "materials": [
    {
      "doubleSided": true,
      "name": "CAIXA",
      "pbrMetallicRoughness": {
        "baseColorTexture": {
          "index": 0
        }
      }
    }
  ],
  "meshes": [
    {
      "name": "Object_0",
      "primitives": [
        {
          "attributes": {
            "NORMAL": 1,
            "POSITION": 0,
            "TEXCOORD_0": 2
          },
          "indices": 3,
          "material": 0,
          "mode": 4
        }
      ]
    }
  ],
  "nodes": [
    {
      "children": [
        1
      ],
      "matrix": [
        2.369039297103882,
        1.1970473056197414e-16,
        -6.363237742580735e-20,
        0.0,
        -6.644142251984586e-19,
        0.011889903283671536,
        -2.369009502691526,
        0.0,
        -1.1970290419298684e-16,
        2.369009502691526,
        0.011889903283671536,
        0.0,
        0.0,
        0.0,
        0.0,
        1.0
      ],
      "name": "Sketchfab_model"
    },
    {
      "children": [
        2
      ],
      "name": "root"
    },
    {
      "children": [
        3
      ],
      "matrix": [
        1.0,
        0.0,
        0.0,
        0.0,
        0.0,
        2.220446049250313e-16,
        1.0,
        0.0,
        0.0,
        -1.0,
        2.220446049250313e-16,
        0.0,
        0.0,
        0.0,
        0.0,
        1.0
      ],
      "name": "GLTF_SceneRootNode"
    },
    {
      "children": [
        4
      ],
      "matrix": [
        0.02500000037252903,
        0.0,
        0.0,
        0.0,
        0.0,
        0.13750000298023224,
        0.0,
        0.0,
        0.0,
        0.0,
        0.09600000083446503,
        0.0,
        0.0,
        0.0,
        0.0,
        1.0
      ],
      "name": "Caixa_0"
    },
    {
      "mesh": 0,
      "name": "Object_4"
    }
  ],
  "samplers": [
    {
      "magFilter": 9729,
      "minFilter": 9987,
      "wrapS": 10497,
      "wrapT": 10497
    }
  ],
  "scene": 0,
  "scenes": [
    {
      "name": "Sketchfab_Scene",
      "nodes": [
        0
      ]
    }
  ],
  "textures": [
    {
      "sampler": 0,
      "source": 0
    }
  ]
}
